<?xml version="1.0" standalone="no"?>
<!DOCTYPE svg PUBLIC "-//W3C//DTD SVG 20010904//EN"
 "http://www.w3.org/TR/2001/REC-SVG-20010904/DTD/svg10.dtd">
<svg version="1.0" xmlns="http://www.w3.org/2000/svg"
 width="800.000000pt" height="800.000000pt" viewBox="0 0 800.000000 800.000000"
 preserveAspectRatio="xMidYMid meet">

<g transform="translate(0.000000,800.000000) scale(0.100000,-0.100000)"
fill="#000000" stroke="none">
<path d="M3775 7574 c-22 -2 -89 -9 -150 -14 -674 -66 -1332 -340 -1878 -783
-141 -114 -407 -379 -518 -517 -445 -551 -708 -1177 -791 -1885 -17 -144 -17
-606 0 -750 54 -459 163 -829 361 -1223 118 -235 254 -445 424 -655 114 -141
379 -407 517 -518 551 -445 1177 -708 1885 -791 144 -17 606 -17 750 0 459 54
829 163 1223 361 235 118 445 254 655 424 141 114 407 379 518 517 445 551
708 1177 791 1885 17 144 17 606 0 750 -54 459 -163 829 -361 1223 -177 353
-382 634 -675 928 -221 220 -429 385 -666 529 -443 269 -929 438 -1445 501
-113 14 -553 27 -640 18z m560 -509 c244 -29 431 -69 630 -137 708 -240 1298
-715 1682 -1353 382 -634 519 -1410 382 -2150 -72 -389 -232 -782 -453 -1113
-411 -616 -999 -1055 -1696 -1265 -590 -179 -1272 -169 -1845 25 -708 240
-1298 715 -1682 1353 -382 634 -519 1410 -382 2150 72 389 232 782 453 1113
513 768 1290 1252 2203 1372 180 23 527 26 708 5z"/>
<path d="M5330 5177 c-27 -8 -248 -222 -919 -889 l-885 -879 -395 395 c-268
267 -411 401 -441 417 -56 28 -159 31 -206 6 -126 -66 -182 -213 -125 -330 14
-29 179 -201 528 -548 458 -457 513 -508 557 -523 63 -20 109 -20 172 0 45 15
131 99 1026 993 1060 1059 1019 1014 1019 1126 0 167 -166 284 -331 232z"/>
</g>
</svg>
