<?xml version="1.0" standalone="no"?>
<!DOCTYPE svg PUBLIC "-//W3C//DTD SVG 20010904//EN"
 "http://www.w3.org/TR/2001/REC-SVG-20010904/DTD/svg10.dtd">
<svg version="1.0" xmlns="http://www.w3.org/2000/svg"
 width="800.000000pt" height="800.000000pt" viewBox="0 0 800.000000 800.000000"
 preserveAspectRatio="xMidYMid meet">

<g transform="translate(0.000000,800.000000) scale(0.100000,-0.100000)"
fill="#000000" stroke="none">
<path d="M3800 7244 c-52 -3 -201 -20 -280 -30 -250 -34 -596 -136 -855 -251
-117 -53 -314 -158 -380 -202 -22 -15 -65 -44 -95 -64 -103 -69 -218 -152
-235 -171 -5 -6 -46 -41 -90 -78 -99 -82 -242 -228 -375 -384 -89 -103 -280
-379 -280 -403 0 -6 -3 -11 -7 -11 -5 0 -13 -10 -19 -23 -7 -12 -43 -83 -80
-158 -38 -74 -76 -153 -86 -175 -9 -21 -26 -60 -37 -85 -12 -25 -21 -50 -21
-55 0 -5 -14 -44 -30 -86 -29 -75 -42 -118 -80 -263 -24 -93 -58 -268 -65
-330 -3 -27 -8 -68 -11 -90 -24 -171 -26 -563 -5 -730 6 -44 13 -102 17 -130
3 -27 17 -104 30 -170 83 -412 247 -806 477 -1150 80 -120 160 -231 181 -250
6 -5 29 -32 51 -60 65 -81 243 -261 340 -345 159 -136 443 -340 474 -340 5 0
11 -4 13 -9 4 -12 269 -147 388 -198 220 -95 566 -192 775 -217 22 -3 83 -11
135 -17 125 -17 577 -17 695 -1 50 7 110 15 135 18 238 30 595 135 855 251
117 53 314 158 380 202 22 15 65 44 95 64 103 69 218 152 235 171 6 6 46 41
90 78 99 82 242 228 375 384 89 103 280 379 280 403 0 6 4 11 8 11 5 0 14 16
22 35 8 19 17 35 20 35 5 0 100 192 145 295 8 17 23 51 34 76 12 25 21 50 21
55 0 5 14 44 30 86 29 75 42 118 80 263 24 93 58 268 65 330 3 28 8 68 11 90
24 171 26 563 5 730 -6 44 -13 103 -17 130 -3 28 -17 104 -30 170 -83 412
-247 806 -477 1150 -80 120 -160 231 -181 250 -6 6 -29 32 -51 60 -65 81 -243
261 -340 345 -159 136 -443 340 -474 340 -5 0 -11 4 -13 9 -4 12 -269 147
-388 198 -220 95 -568 192 -775 217 -22 3 -78 10 -125 16 -88 11 -463 20 -560
14z m480 -509 c14 -3 61 -9 105 -15 83 -10 115 -16 143 -24 9 -3 33 -7 52 -10
19 -3 59 -12 88 -20 29 -8 55 -14 57 -15 9 0 223 -70 267 -87 58 -22 384 -181
417 -204 14 -9 58 -38 96 -63 72 -47 208 -146 235 -170 8 -8 52 -46 96 -85
224 -196 443 -475 591 -752 153 -287 249 -588 299 -935 17 -123 25 -565 11
-630 -4 -16 -11 -66 -17 -110 -6 -44 -12 -89 -14 -100 -5 -20 -44 -204 -51
-239 -3 -10 -10 -35 -17 -55 -7 -20 -13 -38 -13 -41 -1 -3 -5 -12 -8 -20 -4
-8 -22 -58 -41 -110 -47 -129 -110 -268 -188 -410 -42 -76 -174 -273 -211
-315 -10 -11 -25 -32 -33 -47 -8 -16 -20 -28 -27 -28 -6 0 -881 869 -1944
1932 l-1932 1932 62 48 c398 309 848 498 1342 562 66 9 149 18 185 20 80 4
416 -2 450 -9z m-453 -2917 l1932 -1932 -62 -48 c-397 -308 -830 -490 -1342
-564 -122 -17 -564 -25 -630 -11 -16 4 -66 11 -110 17 -83 10 -115 16 -143 24
-9 3 -33 7 -52 10 -19 3 -59 12 -88 20 -29 8 -55 14 -57 15 -9 0 -223 70 -267
87 -58 22 -384 181 -417 204 -14 9 -57 38 -96 63 -72 47 -208 146 -235 170 -8
8 -52 46 -96 85 -224 196 -443 475 -591 752 -153 287 -249 588 -299 935 -17
123 -25 565 -11 630 4 17 11 66 17 110 6 44 12 89 14 100 5 20 44 204 51 239
3 10 10 35 17 55 7 20 13 38 13 41 1 3 5 12 8 20 4 8 22 58 41 110 47 129 110
268 188 410 42 76 174 273 211 315 10 11 25 32 33 48 8 15 20 27 27 27 6 0
881 -869 1944 -1932z"/>
</g>
</svg>
