<?xml version="1.0" standalone="no"?>
<!DOCTYPE svg PUBLIC "-//W3C//DTD SVG 20010904//EN"
 "http://www.w3.org/TR/2001/REC-SVG-20010904/DTD/svg10.dtd">
<svg version="1.0" xmlns="http://www.w3.org/2000/svg"
 width="800.000000pt" height="800.000000pt" viewBox="0 0 800.000000 800.000000"
 preserveAspectRatio="xMidYMid meet">

<g transform="translate(0.000000,800.000000) scale(0.100000,-0.100000)"
fill="#000000" stroke="none">
<path d="M3910 7321 c-86 -28 -168 -98 -211 -181 l-24 -45 0 -595 0 -595 27
-50 c58 -111 177 -185 298 -185 121 0 240 74 298 185 l27 50 0 595 0 595 -24
45 c-32 62 -96 127 -156 158 -39 20 -67 26 -130 28 -44 2 -91 0 -105 -5z"/>
<path d="M1768 6435 c-95 -36 -172 -116 -205 -211 -23 -68 -14 -184 20 -250
19 -38 126 -151 417 -442 447 -448 447 -447 585 -447 97 1 170 30 235 95 65
65 94 138 95 235 0 138 1 137 -447 585 -443 444 -441 442 -578 447 -57 2 -98
-2 -122 -12z"/>
<path d="M6030 6441 c-67 -21 -117 -61 -259 -204 -85 -86 -162 -169 -172 -184
-10 -16 -26 -57 -35 -92 -26 -105 2 -215 79 -298 82 -89 206 -127 318 -98 35
8 80 26 99 39 64 43 331 318 358 371 23 44 27 62 27 145 0 111 -21 167 -90
235 -63 64 -125 89 -220 92 -44 1 -91 -1 -105 -6z"/>
<path d="M910 4321 c-84 -26 -168 -98 -211 -181 -20 -38 -24 -60 -24 -140 0
-84 3 -101 27 -145 32 -60 97 -124 158 -156 l45 -24 576 -3 c571 -3 577 -2
635 19 70 27 146 94 182 164 24 44 27 62 27 145 0 83 -3 101 -27 145 -36 70
-112 137 -181 164 -57 21 -68 21 -620 20 -309 0 -573 -4 -587 -8z"/>
<path d="M6213 4309 c-143 -55 -236 -220 -205 -365 25 -120 102 -214 209 -254
54 -20 70 -21 467 -18 410 3 411 3 456 27 61 32 126 96 158 156 24 44 27 61
27 145 0 84 -3 101 -27 145 -32 60 -97 124 -158 156 -45 24 -46 24 -460 26
-395 2 -417 1 -467 -18z"/>
<path d="M2260 2671 c-74 -24 -125 -67 -380 -323 -321 -321 -325 -327 -325
-468 0 -111 21 -167 90 -235 68 -69 124 -90 235 -90 83 0 101 4 145 27 67 35
589 557 625 625 22 42 25 61 25 143 0 110 -17 154 -89 228 -64 67 -126 95
-221 98 -44 2 -91 0 -105 -5z"/>
<path d="M5560 2671 c-86 -28 -168 -98 -211 -181 -20 -38 -24 -60 -24 -140 0
-142 5 -148 326 -469 321 -321 328 -326 469 -326 111 0 167 21 235 90 69 68
90 124 90 235 0 141 -4 146 -329 470 -313 312 -327 322 -451 326 -44 2 -91 0
-105 -5z"/>
<path d="M3906 1984 c-101 -31 -180 -105 -216 -202 -20 -53 -21 -72 -18 -466
3 -410 3 -411 27 -456 32 -61 96 -126 156 -158 44 -24 61 -27 145 -27 84 0
101 3 145 27 60 32 124 97 156 158 24 45 24 46 27 456 3 394 2 413 -18 466
-61 163 -240 252 -404 202z"/>
</g>
</svg>
