<?xml version="1.0" standalone="no"?>
<!DOCTYPE svg PUBLIC "-//W3C//DTD SVG 20010904//EN"
 "http://www.w3.org/TR/2001/REC-SVG-20010904/DTD/svg10.dtd">
<svg version="1.0" xmlns="http://www.w3.org/2000/svg"
 width="150.000000pt" height="150.000000pt" viewBox="0 0 150.000000 150.000000"
 preserveAspectRatio="xMidYMid meet">

<g transform="translate(0.000000,150.000000) scale(0.100000,-0.100000)"
fill="#000000" stroke="none">
<path d="M651 1399 c-253 -38 -471 -237 -537 -489 -10 -39 -17 -103 -17 -160
0 -186 59 -326 193 -460 134 -134 273 -193 460 -193 187 0 326 59 460 193 134
134 193 273 193 460 0 187 -59 326 -193 460 -124 124 -247 181 -421 193 -41 3
-103 1 -138 -4z m234 -104 c199 -51 359 -211 410 -410 75 -294 -112 -604 -410
-680 -294 -75 -604 112 -680 410 -74 292 110 602 405 679 73 19 201 20 275 1z"/>
<path d="M806 964 c-13 -33 -4 -51 49 -104 30 -30 55 -57 55 -60 0 -3 -110 -4
-245 -2 -152 2 -252 -1 -264 -7 -28 -15 -33 -49 -10 -72 18 -18 36 -19 271
-19 l252 0 -57 -58 c-31 -32 -57 -65 -57 -74 0 -34 12 -48 41 -48 24 0 49 20
134 104 71 70 105 111 105 126 0 15 -34 57 -103 126 -87 87 -109 104 -134 104
-19 0 -33 -6 -37 -16z"/>
</g>
</svg>
